# xmcd
#
# Track frame offsets: 
#        150
#        12743
#        27996
#        42268
#        53501
#        66779
#        84818
#        103109
#        125236
#        145062
#        159387
#        173621
#        189388
#        202452
#        215153
#        231663
#        250127
#        273012
#        289308
#        301450
#
# Disc length: 4144 seconds
#
# Revision: 0
# Processed by: cddbd v1.5.2PL0 Copyright (c) Steve Scherf et al.
# Submitted via: ExactAudioCopy v1.1
#
DISCID=2c102e14
DTITLE=Various Artist - De Pré Historie - De Jaren '70 - De Ultieme 10 CD Col
DTITLE=lectie - 1971
DYEAR=2018
DGENRE=Top 40
TTITLE0=The Sweet - Funny Funny
TTITLE1=Michel Delpech - Pour un flirt
TTITLE2=Tony Christie - (Is This The Way To) Amarillo
TTITLE3=Peter Orloff - Ein Mädchen Für Immer
TTITLE4=Will Tura - Zonneschijn
TTITLE5=Elton John - Your Song
TTITLE6=Mouth and MacNeal - How Do You Do
TTITLE7=Ike and Tina Turner - Proud Mary
TTITLE8=T. Rex - Get It On
TTITLE9=Middle Of The Road - Tweedle Dee Tweedle Dum
TTITLE10=Michael Nesmith and The First National Band - Silver Moon
TTITLE11=Greenfield and Cook - Only Lies
TTITLE12=Ocean - Put Your Hand In The Hand
TTITLE13=Focus - House Of The King
TTITLE14=The Pebbles - To The Rising Sun
TTITLE15=Rod Stewart - Reason To Believe
TTITLE16=Redbone - Maggie
TTITLE17=The Cats - One Way Wind
TTITLE18=Zjef Vanuytsel - Houten kop
TTITLE19=Bill Withers - Ain't No Sunshine
EXTD=
EXTT0=
EXTT1=
EXTT2=
EXTT3=
EXTT4=
EXTT5=
EXTT6=
EXTT7=
EXTT8=
EXTT9=
EXTT10=
EXTT11=
EXTT12=
EXTT13=
EXTT14=
EXTT15=
EXTT16=
EXTT17=
EXTT18=
EXTT19=
PLAYORDER=
